adventprofmm_reg_krn.ufo
<glyph name="quotedbl" format="1">
  <advance width="266"/>
  <unicode hex="0022"/>
  <outline>
    <contour>
      <point x="166" y="701" type="curve"/>
      <point x="180" y="586" type="line"/>
      <point x="220" y="586" type="line"/>
      <point x="234" y="701" type="line"/>
      <point x="234" y="748"/>
      <point x="166" y="748"/>
    </contour>
    <contour>
      <point x="31" y="701" type="curve"/>
      <point x="45" y="586" type="line"/>
      <point x="84" y="586" type="line"/>
      <point x="99" y="701" type="line"/>
      <point x="99" y="748"/>
      <point x="31" y="748"/>
    </contour>
  </outline>
</glyph>
<glyph name="grave" format="1">
  <advance width="266"/>
  <unicode hex="0060"/>
  <outline>
    <contour>
      <point x="113" y="715" type="line"/>
      <point x="108" y="734"/>
      <point x="87" y="745"/>
      <point x="69" y="735" type="curve" smooth="yes"/>
      <point x="52" y="725"/>
      <point x="51" y="702"/>
      <point x="63" y="687" type="curve"/>
      <point x="116" y="608" type="line"/>
      <point x="152" y="608" type="line"/>
    </contour>
  </outline>
</glyph>
<glyph name="s" format="1">
  <advance width="416"/>
  <unicode hex="0073"/>
  <outline>
    <contour>
      <point x="322" y="438" type="curve"/>
      <point x="345" y="475" type="line"/>
      <point x="294" y="504"/>
      <point x="254" y="512"/>
      <point x="213" y="510" type="curve" smooth="yes"/>
      <point x="174" y="510"/>
      <point x="138" y="501"/>
      <point x="110" y="482" type="curve" smooth="yes"/>
      <point x="71" y="457"/>
      <point x="48" y="416"/>
      <point x="52" y="362" type="curve"/>
      <point x="57" y="323"/>
      <point x="79" y="298"/>
      <point x="107" y="277" type="curve"/>
      <point x="137" y="257"/>
      <point x="173" y="244"/>
      <point x="209" y="231" type="curve" smooth="yes"/>
      <point x="243" y="218"/>
      <point x="276" y="205"/>
      <point x="299" y="188" type="curve" smooth="yes"/>
      <point x="321" y="172"/>
      <point x="335" y="151"/>
      <point x="334" y="122" type="curve"/>
      <point x="334" y="95"/>
      <point x="318" y="73"/>
      <point x="296" y="57" type="curve" smooth="yes"/>
      <point x="274" y="42"/>
      <point x="245" y="34"/>
      <point x="213" y="34" type="curve" smooth="yes"/>
      <point x="183" y="34"/>
      <point x="157" y="40"/>
      <point x="134" y="48" type="curve"/>
      <point x="102" y="61"/>
      <point x="77" y="80"/>
      <point x="57" y="100" type="curve"/>
      <point x="26" y="68" type="line"/>
      <point x="51" y="38"/>
      <point x="81" y="18"/>
      <point x="112" y="4" type="curve" smooth="yes"/>
      <point x="145" y="-11"/>
      <point x="180" y="-17"/>
      <point x="213" y="-18" type="curve" smooth="yes"/>
      <point x="253" y="-18"/>
      <point x="290" y="-9"/>
      <point x="320" y="10" type="curve" smooth="yes"/>
      <point x="361" y="36"/>
      <point x="389" y="79"/>
      <point x="386" y="133" type="curve" smooth="yes"/>
      <point x="383" y="170"/>
      <point x="367" y="197"/>
      <point x="344" y="218" type="curve" smooth="yes"/>
      <point x="314" y="244"/>
      <point x="272" y="261"/>
      <point x="233" y="276" type="curve" smooth="yes"/>
      <point x="202" y="287"/>
      <point x="172" y="298"/>
      <point x="148" y="311" type="curve" smooth="yes"/>
      <point x="125" y="324"/>
      <point x="108" y="341"/>
      <point x="104" y="364" type="curve" smooth="yes"/>
      <point x="98" y="398"/>
      <point x="113" y="424"/>
      <point x="137" y="440" type="curve" smooth="yes"/>
      <point x="158" y="454"/>
      <point x="185" y="462"/>
      <point x="215" y="463" type="curve" smooth="yes"/>
      <point x="251" y="464"/>
      <point x="291" y="455"/>
    </contour>
  </outline>
</glyph>
<glyph name="Agrave" format="1">
  <advance width="545"/>
  <unicode hex="00C0"/>
  <outline>
    <contour>
      <point x="525" y="0" type="line"/>
      <point x="298" y="698" type="line"/>
      <point x="245" y="698" type="line"/>
      <point x="21" y="0" type="line"/>
      <point x="81" y="0" type="line"/>
      <point x="159" y="244" type="line"/>
      <point x="386" y="244" type="line"/>
      <point x="466" y="0" type="line"/>
    </contour>
    <contour>
      <point x="174" y="299" type="line"/>
      <point x="271" y="612" type="line"/>
      <point x="371" y="299" type="line"/>
    </contour>
    <contour>
      <point x="200" y="820" type="curve"/>
      <point x="253" y="740" type="line"/>
      <point x="288" y="740" type="line"/>
      <point x="250" y="848" type="line" smooth="yes"/>
      <point x="244" y="866"/>
      <point x="224" y="877"/>
      <point x="206" y="867" type="curve" smooth="yes"/>
      <point x="188" y="858"/>
      <point x="186" y="834"/>
    </contour>
  </outline>
</glyph>
<glyph name="Ccedilla" format="1">
  <advance width="422"/>
  <unicode hex="00C7"/>
  <outline>
    <contour>
      <point x="353" y="637" type="curve"/>
      <point x="370" y="675" type="line"/>
      <point x="327" y="697"/>
      <point x="279" y="708"/>
      <point x="228" y="708" type="curve" smooth="yes"/>
      <point x="187" y="708"/>
      <point x="151" y="700"/>
      <point x="121" y="683" type="curve" smooth="yes"/>
      <point x="63" y="647"/>
      <point x="34" y="590"/>
      <point x="34" y="503" type="curve" smooth="yes"/>
      <point x="34" y="183" type="line" smooth="yes"/>
      <point x="34" y="99"/>
      <point x="67" y="42"/>
      <point x="116" y="15" type="curve" smooth="yes"/>
      <point x="164" y="-10"/>
      <point x="213" y="-10"/>
      <point x="234" y="-10" type="curve" smooth="yes"/>
      <point x="284" y="-10"/>
      <point x="338" y="1"/>
      <point x="395" y="23" type="curve"/>
      <point x="383" y="69" type="line"/>
      <point x="326" y="50"/>
      <point x="277" y="40"/>
      <point x="238" y="40" type="curve" smooth="yes"/>
      <point x="192" y="40"/>
      <point x="160" y="48"/>
      <point x="137" y="65" type="curve" smooth="yes"/>
      <point x="101" y="90"/>
      <point x="90" y="132"/>
      <point x="90" y="185" type="curve" smooth="yes"/>
      <point x="90" y="512" type="line" smooth="yes"/>
      <point x="90" y="568"/>
      <point x="107" y="607"/>
      <point x="141" y="631" type="curve" smooth="yes"/>
      <point x="166" y="649"/>
      <point x="202" y="658"/>
      <point x="246" y="658" type="curve" smooth="yes"/>
      <point x="280" y="658"/>
      <point x="316" y="651"/>
    </contour>
    <contour>
      <point x="260" y="-48" type="curve"/>
      <point x="251" y="-50"/>
      <point x="241" y="-50"/>
      <point x="232" y="-51" type="curve"/>
      <point x="259" y="-7" type="line"/>
      <point x="209" y="-7" type="line"/>
      <point x="169" y="-75" type="line"/>
      <point x="183" y="-105" type="line"/>
      <point x="209" y="-102"/>
      <point x="235" y="-98"/>
      <point x="257" y="-98" type="curve" smooth="yes"/>
      <point x="291" y="-97"/>
      <point x="315" y="-105"/>
      <point x="315" y="-139" type="curve" smooth="yes"/>
      <point x="315" y="-179"/>
      <point x="283" y="-190"/>
      <point x="243" y="-190" type="curve" smooth="yes"/>
      <point x="217" y="-190"/>
      <point x="187" y="-185"/>
      <point x="161" y="-178" type="curve"/>
      <point x="153" y="-208"/>
      <point x="155" y="-199"/>
      <point x="149" y="-227" type="curve"/>
      <point x="151" y="-228"/>
      <point x="203" y="-240"/>
      <point x="250" y="-240" type="curve" smooth="yes"/>
      <point x="329" y="-240"/>
      <point x="364" y="-190"/>
      <point x="364" y="-142" type="curve" smooth="yes"/>
      <point x="364" y="-91"/>
      <point x="326" y="-41"/>
    </contour>
  </outline>
</glyph>
<glyph name="Otilde" format="1">
  <advance width="490"/>
  <unicode hex="00D5"/>
  <outline>
    <contour>
      <point x="34" y="506" type="curve" smooth="yes"/>
      <point x="34" y="185" type="line" smooth="yes"/>
      <point x="34" y="56"/>
      <point x="127" y="-11"/>
      <point x="245" y="-11" type="curve" smooth="yes"/>
      <point x="368" y="-11"/>
      <point x="454" y="64"/>
      <point x="454" y="185" type="curve" smooth="yes"/>
      <point x="454" y="505" type="line" smooth="yes"/>
      <point x="454" y="635"/>
      <point x="378" y="714"/>
      <point x="246" y="714" type="curve" smooth="yes"/>
      <point x="114" y="714"/>
      <point x="34" y="642"/>
    </contour>
    <contour>
      <point x="90" y="186" type="curve" smooth="yes"/>
      <point x="90" y="515" type="line" smooth="yes"/>
      <point x="90" y="612"/>
      <point x="151" y="661"/>
      <point x="243" y="661" type="curve" smooth="yes"/>
      <point x="337" y="661"/>
      <point x="399" y="612"/>
      <point x="399" y="515" type="curve" smooth="yes"/>
      <point x="399" y="186" type="line" smooth="yes"/>
      <point x="399" y="88"/>
      <point x="335" y="42"/>
      <point x="243" y="42" type="curve" smooth="yes"/>
      <point x="155" y="42"/>
      <point x="90" y="90"/>
    </contour>
    <contour>
      <point x="373" y="774" type="curve"/>
      <point x="352" y="822" type="line"/>
      <point x="339" y="811"/>
      <point x="319" y="801"/>
      <point x="299" y="802" type="curve"/>
      <point x="286" y="801"/>
      <point x="240" y="827"/>
      <point x="192" y="827" type="curve" smooth="yes"/>
      <point x="164" y="827"/>
      <point x="137" y="820"/>
      <point x="114" y="795" type="curve"/>
      <point x="136" y="749" type="line"/>
      <point x="151" y="760"/>
      <point x="162" y="768"/>
      <point x="182" y="769" type="curve" smooth="yes"/>
      <point x="212" y="771"/>
      <point x="257" y="745"/>
      <point x="302" y="745" type="curve" smooth="yes"/>
      <point x="326" y="745"/>
      <point x="350" y="751"/>
    </contour>
  </outline>
</glyph>
<glyph name="Odieresis" format="1">
  <advance width="490"/>
  <unicode hex="00D6"/>
  <outline>
    <contour>
      <point x="34" y="506" type="curve" smooth="yes"/>
      <point x="34" y="185" type="line" smooth="yes"/>
      <point x="34" y="56"/>
      <point x="127" y="-11"/>
      <point x="245" y="-11" type="curve" smooth="yes"/>
      <point x="368" y="-11"/>
      <point x="454" y="64"/>
      <point x="454" y="185" type="curve" smooth="yes"/>
      <point x="454" y="505" type="line" smooth="yes"/>
      <point x="454" y="635"/>
      <point x="378" y="714"/>
      <point x="246" y="714" type="curve" smooth="yes"/>
      <point x="114" y="714"/>
      <point x="34" y="642"/>
    </contour>
    <contour>
      <point x="90" y="186" type="curve" smooth="yes"/>
      <point x="90" y="515" type="line" smooth="yes"/>
      <point x="90" y="612"/>
      <point x="151" y="661"/>
      <point x="243" y="661" type="curve" smooth="yes"/>
      <point x="337" y="661"/>
      <point x="399" y="612"/>
      <point x="399" y="515" type="curve" smooth="yes"/>
      <point x="399" y="186" type="line" smooth="yes"/>
      <point x="399" y="88"/>
      <point x="335" y="42"/>
      <point x="243" y="42" type="curve" smooth="yes"/>
      <point x="155" y="42"/>
      <point x="90" y="90"/>
    </contour>
    <contour>
      <point x="323" y="844" type="curve" smooth="yes"/>
      <point x="304" y="844"/>
      <point x="288" y="828"/>
      <point x="288" y="810" type="curve" smooth="yes"/>
      <point x="288" y="791"/>
      <point x="304" y="777"/>
      <point x="323" y="777" type="curve" smooth="yes"/>
      <point x="340" y="777"/>
      <point x="356" y="791"/>
      <point x="356" y="810" type="curve" smooth="yes"/>
      <point x="356" y="828"/>
      <point x="340" y="844"/>
    </contour>
    <contour>
      <point x="164" y="844" type="curve" smooth="yes"/>
      <point x="146" y="844"/>
      <point x="131" y="828"/>
      <point x="131" y="810" type="curve" smooth="yes"/>
      <point x="131" y="791"/>
      <point x="146" y="777"/>
      <point x="164" y="777" type="curve" smooth="yes"/>
      <point x="183" y="777"/>
      <point x="198" y="791"/>
      <point x="198" y="810" type="curve" smooth="yes"/>
      <point x="198" y="828"/>
      <point x="183" y="844"/>
    </contour>
  </outline>
</glyph>
<glyph name="oslash" format="1">
  <advance width="432"/>
  <unicode hex="00F8"/>
  <outline>
    <contour>
      <point x="397" y="184" type="curve" smooth="yes"/>
      <point x="397" y="315" type="line" smooth="yes"/>
      <point x="397" y="381"/>
      <point x="377" y="432"/>
      <point x="340" y="466" type="curve"/>
      <point x="392" y="585" type="line"/>
      <point x="334" y="585" type="line"/>
      <point x="294" y="495" type="line"/>
      <point x="271" y="505"/>
      <point x="245" y="510"/>
      <point x="214" y="510" type="curve" smooth="yes"/>
      <point x="95" y="510"/>
      <point x="28" y="442"/>
      <point x="28" y="315" type="curve" smooth="yes"/>
      <point x="28" y="184" type="line" smooth="yes"/>
      <point x="28" y="119"/>
      <point x="50" y="64"/>
      <point x="94" y="29" type="curve"/>
      <point x="53" y="-66" type="line"/>
      <point x="109" y="-66" type="line"/>
      <point x="139" y="2" type="line"/>
      <point x="161" y="-6"/>
      <point x="186" y="-10"/>
      <point x="216" y="-10" type="curve" smooth="yes"/>
      <point x="339" y="-10"/>
      <point x="397" y="71"/>
    </contour>
    <contour>
      <point x="84" y="174" type="curve" smooth="yes"/>
      <point x="84" y="315" type="line" smooth="yes"/>
      <point x="84" y="411"/>
      <point x="128" y="460"/>
      <point x="216" y="460" type="curve" smooth="yes"/>
      <point x="239" y="460"/>
      <point x="258" y="457"/>
      <point x="274" y="449" type="curve"/>
      <point x="116" y="80" type="line"/>
      <point x="95" y="103"/>
      <point x="84" y="135"/>
    </contour>
    <contour>
      <point x="340" y="315" type="curve" smooth="yes"/>
      <point x="340" y="174" type="line" smooth="yes"/>
      <point x="340" y="92"/>
      <point x="299" y="40"/>
      <point x="216" y="40" type="curve" smooth="yes"/>
      <point x="195" y="40"/>
      <point x="175" y="43"/>
      <point x="159" y="50" type="curve"/>
      <point x="317" y="414" type="line"/>
      <point x="333" y="389"/>
      <point x="340" y="356"/>
    </contour>
  </outline>
</glyph>
<glyph name="Aogonek" format="1">
  <advance width="599"/>
  <unicode hex="0104"/>
  <outline>
    <contour>
      <point x="525" y="0" type="line"/>
      <point x="298" y="698" type="line"/>
      <point x="245" y="698" type="line"/>
      <point x="21" y="0" type="line"/>
      <point x="81" y="0" type="line"/>
      <point x="159" y="244" type="line"/>
      <point x="386" y="244" type="line"/>
      <point x="466" y="0" type="line"/>
    </contour>
    <contour>
      <point x="174" y="299" type="line"/>
      <point x="271" y="612" type="line"/>
      <point x="371" y="299" type="line"/>
    </contour>
    <contour>
      <point x="446" y="-127" type="curve" smooth="yes"/>
      <point x="518" y="-2" type="line"/>
      <point x="518" y="7" type="line"/>
      <point x="474" y="3" type="line"/>
      <point x="474" y="-1" type="line"/>
      <point x="410" y="-112" type="line" smooth="yes"/>
      <point x="369" y="-185"/>
      <point x="418" y="-255"/>
      <point x="507" y="-230" type="curve" smooth="yes"/>
      <point x="525" y="-224"/>
      <point x="609" y="-195"/>
      <point x="611" y="-194" type="curve"/>
      <point x="592" y="-154" type="line"/>
      <point x="592" y="-154"/>
      <point x="551" y="-168"/>
      <point x="496" y="-188" type="curve" smooth="yes"/>
      <point x="447" y="-205"/>
      <point x="421" y="-173"/>
    </contour>
  </outline>
</glyph>
<glyph name="ccircumflex" format="1">
  <advance width="383"/>
  <unicode hex="0109"/>
  <outline>
    <contour>
      <point x="333" y="430" type="curve"/>
      <point x="348" y="476" type="line"/>
      <point x="291" y="503"/>
      <point x="224" y="516"/>
      <point x="167" y="504" type="curve" smooth="yes"/>
      <point x="122" y="494"/>
      <point x="83" y="470"/>
      <point x="58" y="426" type="curve" smooth="yes"/>
      <point x="38" y="394"/>
      <point x="31" y="362"/>
      <point x="29" y="318" type="curve"/>
      <point x="29" y="173" type="line" smooth="yes"/>
      <point x="29" y="75"/>
      <point x="73" y="23"/>
      <point x="141" y="1" type="curve" smooth="yes"/>
      <point x="201" y="-18"/>
      <point x="283" y="-13"/>
      <point x="350" y="5" type="curve"/>
      <point x="339" y="55" type="line"/>
      <point x="339" y="55"/>
      <point x="217" y="26"/>
      <point x="153" y="52" type="curve" smooth="yes"/>
      <point x="101" y="71"/>
      <point x="84" y="119"/>
      <point x="84" y="185" type="curve" smooth="yes"/>
      <point x="84" y="305" type="line" smooth="yes"/>
      <point x="84" y="340"/>
      <point x="91" y="371"/>
      <point x="103" y="394" type="curve" smooth="yes"/>
      <point x="119" y="426"/>
      <point x="145" y="446"/>
      <point x="175" y="453" type="curve" smooth="yes"/>
      <point x="218" y="464"/>
      <point x="285" y="452"/>
    </contour>
    <contour>
      <point x="91" y="585" type="line"/>
      <point x="129" y="547" type="line"/>
      <point x="223" y="637" type="line"/>
      <point x="312" y="549" type="line"/>
      <point x="350" y="586" type="line"/>
      <point x="223" y="712" type="line"/>
    </contour>
  </outline>
</glyph>
<glyph name="Eogonek" format="1">
  <advance width="454"/>
  <unicode hex="0118"/>
  <outline>
    <contour>
      <point x="41" y="0" type="line"/>
      <point x="372" y="0" type="line"/>
      <point x="372" y="50" type="line"/>
      <point x="97" y="50" type="line"/>
      <point x="97" y="356" type="line"/>
      <point x="269" y="356" type="line"/>
      <point x="287" y="411" type="line"/>
      <point x="97" y="411" type="line"/>
      <point x="97" y="646" type="line"/>
      <point x="374" y="646" type="line"/>
      <point x="374" y="698" type="line"/>
      <point x="41" y="698" type="line"/>
    </contour>
    <contour>
      <point x="293" y="-125" type="curve" smooth="yes"/>
      <point x="363" y="-1" type="line"/>
      <point x="363" y="8" type="line"/>
      <point x="319" y="4" type="line"/>
      <point x="319" y="0" type="line"/>
      <point x="257" y="-111" type="line" smooth="yes"/>
      <point x="215" y="-184"/>
      <point x="264" y="-254"/>
      <point x="352" y="-229" type="curve" smooth="yes"/>
      <point x="371" y="-223"/>
      <point x="455" y="-194"/>
      <point x="457" y="-193" type="curve"/>
      <point x="439" y="-153" type="line"/>
      <point x="439" y="-153"/>
      <point x="396" y="-167"/>
      <point x="342" y="-186" type="curve" smooth="yes"/>
      <point x="293" y="-204"/>
      <point x="267" y="-172"/>
    </contour>
  </outline>
</glyph>
<glyph name="gdotaccent" format="1">
  <advance width="436"/>
  <unicode hex="0121"/>
  <outline>
    <contour>
      <point x="400" y="-64" type="curve" smooth="yes"/>
      <point x="400" y="498" type="line"/>
      <point x="342" y="498" type="line"/>
      <point x="342" y="451" type="line"/>
      <point x="300" y="487"/>
      <point x="249" y="506"/>
      <point x="201" y="508" type="curve" smooth="yes"/>
      <point x="91" y="513"/>
      <point x="30" y="450"/>
      <point x="30" y="345" type="curve" smooth="yes"/>
      <point x="30" y="175" type="line" smooth="yes"/>
      <point x="30" y="53"/>
      <point x="89" y="-12"/>
      <point x="201" y="-12" type="curve" smooth="yes"/>
      <point x="261" y="-12"/>
      <point x="319" y="20"/>
      <point x="342" y="61" type="curve"/>
      <point x="342" y="-63" type="line" smooth="yes"/>
      <point x="342" y="-116"/>
      <point x="319" y="-150"/>
      <point x="275" y="-167" type="curve"/>
      <point x="292" y="-210" type="line"/>
      <point x="368" y="-186"/>
      <point x="400" y="-144"/>
    </contour>
    <contour>
      <point x="342" y="392" type="curve"/>
      <point x="342" y="173" type="line" smooth="yes"/>
      <point x="342" y="88"/>
      <point x="281" y="40"/>
      <point x="204" y="40" type="curve" smooth="yes"/>
      <point x="128" y="40"/>
      <point x="87" y="82"/>
      <point x="87" y="166" type="curve" smooth="yes"/>
      <point x="87" y="342" type="line" smooth="yes"/>
      <point x="87" y="432"/>
      <point x="149" y="463"/>
      <point x="213" y="458" type="curve" smooth="yes"/>
      <point x="257" y="454"/>
      <point x="313" y="433"/>
    </contour>
    <contour>
      <point x="215" y="638" type="curve" smooth="yes"/>
      <point x="196" y="638"/>
      <point x="181" y="623"/>
      <point x="181" y="604" type="curve" smooth="yes"/>
      <point x="181" y="585"/>
      <point x="196" y="571"/>
      <point x="215" y="571" type="curve" smooth="yes"/>
      <point x="234" y="571"/>
      <point x="248" y="585"/>
      <point x="248" y="604" type="curve" smooth="yes"/>
      <point x="248" y="623"/>
      <point x="234" y="638"/>
    </contour>
  </outline>
</glyph>
<glyph name="gcommaaccent" format="1">
  <advance width="435"/>
  <unicode hex="0123"/>
  <outline>
    <contour>
      <point x="400" y="-64" type="curve" smooth="yes"/>
      <point x="400" y="498" type="line"/>
      <point x="342" y="498" type="line"/>
      <point x="342" y="451" type="line"/>
      <point x="300" y="487"/>
      <point x="249" y="506"/>
      <point x="201" y="508" type="curve" smooth="yes"/>
      <point x="91" y="513"/>
      <point x="30" y="450"/>
      <point x="30" y="345" type="curve" smooth="yes"/>
      <point x="30" y="175" type="line" smooth="yes"/>
      <point x="30" y="53"/>
      <point x="89" y="-12"/>
      <point x="201" y="-12" type="curve" smooth="yes"/>
      <point x="261" y="-12"/>
      <point x="319" y="20"/>
      <point x="342" y="61" type="curve"/>
      <point x="342" y="-63" type="line" smooth="yes"/>
      <point x="342" y="-116"/>
      <point x="319" y="-150"/>
      <point x="275" y="-167" type="curve"/>
      <point x="292" y="-210" type="line"/>
      <point x="368" y="-186"/>
      <point x="400" y="-144"/>
    </contour>
    <contour>
      <point x="342" y="392" type="curve"/>
      <point x="342" y="173" type="line" smooth="yes"/>
      <point x="342" y="88"/>
      <point x="281" y="40"/>
      <point x="204" y="40" type="curve" smooth="yes"/>
      <point x="128" y="40"/>
      <point x="87" y="82"/>
      <point x="87" y="166" type="curve" smooth="yes"/>
      <point x="87" y="342" type="line" smooth="yes"/>
      <point x="87" y="432"/>
      <point x="149" y="463"/>
      <point x="213" y="458" type="curve" smooth="yes"/>
      <point x="257" y="454"/>
      <point x="313" y="433"/>
    </contour>
    <contour>
      <point x="252" y="716" type="curve"/>
      <point x="235" y="728" type="line"/>
      <point x="215" y="711"/>
      <point x="183" y="671"/>
      <point x="182" y="608" type="curve"/>
      <point x="183" y="588"/>
      <point x="197" y="575"/>
      <point x="216" y="575" type="curve" smooth="yes"/>
      <point x="235" y="575"/>
      <point x="249" y="590"/>
      <point x="249" y="608" type="curve" smooth="yes"/>
      <point x="249" y="625"/>
      <point x="237" y="638"/>
      <point x="222" y="641" type="curve"/>
      <point x="224" y="662"/>
      <point x="231" y="690"/>
    </contour>
  </outline>
</glyph>
<glyph name="lacute" format="1">
  <advance width="168"/>
  <unicode hex="013A"/>
  <outline>
    <contour>
      <point x="41" y="0" type="line"/>
      <point x="97" y="0" type="line"/>
      <point x="97" y="698" type="line"/>
      <point x="41" y="698" type="line"/>
    </contour>
    <contour>
      <point x="88" y="849" type="curve" smooth="yes"/>
      <point x="50" y="743" type="line"/>
      <point x="86" y="743" type="line"/>
      <point x="139" y="822" type="line"/>
      <point x="151" y="836"/>
      <point x="150" y="859"/>
      <point x="132" y="869" type="curve" smooth="yes"/>
      <point x="115" y="879"/>
      <point x="94" y="868"/>
    </contour>
  </outline>
</glyph>
<glyph name="ldot" format="1">
  <advance width="193"/>
  <unicode hex="0140"/>
  <outline>
    <contour>
      <point x="41" y="0" type="line"/>
      <point x="96" y="0" type="line"/>
      <point x="96" y="698" type="line"/>
      <point x="41" y="698" type="line"/>
    </contour>
    <component base="dotaccent" xOffset="49" yOffset="-367"/>
  </outline>
</glyph>
<glyph name="scaron" format="1">
  <advance width="420"/>
  <unicode hex="0161"/>
  <outline>
    <contour>
      <point x="324" y="439" type="curve"/>
      <point x="346" y="476" type="line"/>
      <point x="296" y="504"/>
      <point x="256" y="513"/>
      <point x="215" y="512" type="curve" smooth="yes"/>
      <point x="176" y="510"/>
      <point x="140" y="501"/>
      <point x="112" y="482" type="curve" smooth="yes"/>
      <point x="73" y="457"/>
      <point x="50" y="417"/>
      <point x="54" y="363" type="curve"/>
      <point x="59" y="324"/>
      <point x="81" y="298"/>
      <point x="109" y="278" type="curve" smooth="yes"/>
      <point x="139" y="258"/>
      <point x="175" y="244"/>
      <point x="211" y="231" type="curve" smooth="yes"/>
      <point x="245" y="218"/>
      <point x="278" y="206"/>
      <point x="301" y="188" type="curve" smooth="yes"/>
      <point x="323" y="172"/>
      <point x="336" y="152"/>
      <point x="336" y="122" type="curve" smooth="yes"/>
      <point x="336" y="96"/>
      <point x="321" y="73"/>
      <point x="297" y="57" type="curve" smooth="yes"/>
      <point x="277" y="43"/>
      <point x="247" y="34"/>
      <point x="215" y="34" type="curve" smooth="yes"/>
      <point x="185" y="34"/>
      <point x="159" y="40"/>
      <point x="136" y="48" type="curve"/>
      <point x="104" y="62"/>
      <point x="79" y="80"/>
      <point x="59" y="100" type="curve"/>
      <point x="28" y="69" type="line"/>
      <point x="53" y="38"/>
      <point x="83" y="18"/>
      <point x="114" y="4" type="curve" smooth="yes"/>
      <point x="147" y="-10"/>
      <point x="182" y="-15"/>
      <point x="215" y="-17" type="curve" smooth="yes"/>
      <point x="255" y="-18"/>
      <point x="292" y="-8"/>
      <point x="322" y="11" type="curve" smooth="yes"/>
      <point x="363" y="36"/>
      <point x="391" y="79"/>
      <point x="388" y="134" type="curve" smooth="yes"/>
      <point x="386" y="170"/>
      <point x="369" y="198"/>
      <point x="346" y="219" type="curve" smooth="yes"/>
      <point x="316" y="245"/>
      <point x="274" y="262"/>
      <point x="235" y="276" type="curve" smooth="yes"/>
      <point x="204" y="288"/>
      <point x="173" y="299"/>
      <point x="150" y="312" type="curve" smooth="yes"/>
      <point x="127" y="326"/>
      <point x="111" y="342"/>
      <point x="106" y="364" type="curve"/>
      <point x="101" y="399"/>
      <point x="115" y="425"/>
      <point x="139" y="440" type="curve" smooth="yes"/>
      <point x="160" y="454"/>
      <point x="187" y="462"/>
      <point x="217" y="463" type="curve" smooth="yes"/>
      <point x="254" y="464"/>
      <point x="293" y="457"/>
    </contour>
    <contour>
      <point x="211" y="618" type="line"/>
      <point x="122" y="705" type="line"/>
      <point x="83" y="668" type="line"/>
      <point x="211" y="542" type="line"/>
      <point x="343" y="669" type="line"/>
      <point x="304" y="707" type="line"/>
    </contour>
  </outline>
</glyph>
<glyph name="Iotatonos" format="1">
  <advance width="257"/>
  <unicode hex="038A"/>
  <outline>
    <contour>
      <point x="92" y="649" type="line"/>
      <point x="160" y="647" type="line"/>
      <point x="160" y="0" type="line"/>
      <point x="215" y="0" type="line"/>
      <point x="215" y="698" type="line"/>
      <point x="92" y="698" type="line"/>
    </contour>
    <contour>
      <point x="41" y="804" type="curve" smooth="yes"/>
      <point x="4" y="697" type="line"/>
      <point x="39" y="697" type="line"/>
      <point x="92" y="777" type="line"/>
      <point x="105" y="791"/>
      <point x="103" y="814"/>
      <point x="85" y="824" type="curve" smooth="yes"/>
      <point x="67" y="834"/>
      <point x="48" y="823"/>
    </contour>
  </outline>
</glyph>
<glyph name="Beta" format="1">
  <advance width="503"/>
  <unicode hex="0392"/>
  <outline>
    <contour>
      <point x="261" y="698" type="curve" smooth="yes"/>
      <point x="41" y="698" type="line"/>
      <point x="41" y="0" type="line"/>
      <point x="271" y="0" type="line" smooth="yes"/>
      <point x="347" y="0"/>
      <point x="404" y="26"/>
      <point x="433" y="69" type="curve" smooth="yes"/>
      <point x="459" y="109"/>
      <point x="473" y="155"/>
      <point x="473" y="208" type="curve" smooth="yes"/>
      <point x="473" y="304"/>
      <point x="429" y="363"/>
      <point x="370" y="389" type="curve"/>
      <point x="370" y="391" type="line" smooth="yes"/>
      <point x="370" y="392"/>
      <point x="371" y="392"/>
      <point x="371" y="393" type="curve"/>
      <point x="415" y="422"/>
      <point x="437" y="466"/>
      <point x="437" y="526" type="curve" smooth="yes"/>
      <point x="437" y="584"/>
      <point x="422" y="628"/>
      <point x="390" y="656" type="curve" smooth="yes"/>
      <point x="359" y="684"/>
      <point x="316" y="698"/>
    </contour>
    <contour>
      <point x="260" y="411" type="curve" smooth="yes"/>
      <point x="97" y="411" type="line"/>
      <point x="97" y="645" type="line"/>
      <point x="253" y="645" type="line" smooth="yes"/>
      <point x="337" y="645"/>
      <point x="379" y="606"/>
      <point x="379" y="528" type="curve" smooth="yes"/>
      <point x="379" y="498"/>
      <point x="372" y="473"/>
      <point x="359" y="454" type="curve" smooth="yes"/>
      <point x="339" y="426"/>
      <point x="305" y="411"/>
    </contour>
    <contour>
      <point x="269" y="53" type="curve" smooth="yes"/>
      <point x="97" y="53" type="line"/>
      <point x="97" y="356" type="line"/>
      <point x="285" y="356" type="line" smooth="yes"/>
      <point x="354" y="356"/>
      <point x="413" y="305"/>
      <point x="413" y="212" type="curve" smooth="yes"/>
      <point x="413" y="106"/>
      <point x="365" y="53"/>
    </contour>
  </outline>
</glyph>
<glyph name="alphatonos" format="1">
  <advance width="433"/>
  <unicode hex="03AC"/>
  <outline>
    <contour>
      <point x="400" y="485" type="curve"/>
      <point x="356" y="506" type="line"/>
      <point x="348" y="488"/>
      <point x="343" y="463"/>
      <point x="343" y="463" type="curve"/>
      <point x="289" y="490"/>
      <point x="229" y="506"/>
      <point x="176" y="506" type="curve" smooth="yes"/>
      <point x="101" y="506"/>
      <point x="29" y="471"/>
      <point x="29" y="353" type="curve" smooth="yes"/>
      <point x="29" y="168" type="line" smooth="yes"/>
      <point x="29" y="19"/>
      <point x="128" y="-7"/>
      <point x="223" y="-4" type="curve" smooth="yes"/>
      <point x="269" y="-2"/>
      <point x="393" y="4"/>
      <point x="393" y="4" type="curve"/>
      <point x="393" y="399" type="line" smooth="yes"/>
      <point x="393" y="447"/>
      <point x="400" y="485"/>
    </contour>
    <contour>
      <point x="84" y="162" type="curve" smooth="yes"/>
      <point x="84" y="350" type="line" smooth="yes"/>
      <point x="84" y="448"/>
      <point x="142" y="457"/>
      <point x="174" y="454" type="curve"/>
      <point x="214" y="454"/>
      <point x="269" y="441"/>
      <point x="337" y="414" type="curve"/>
      <point x="337" y="51" type="line"/>
      <point x="337" y="51"/>
      <point x="274" y="46"/>
      <point x="203" y="46" type="curve" smooth="yes"/>
      <point x="124" y="46"/>
      <point x="84" y="87"/>
    </contour>
    <contour>
      <point x="226" y="657" type="curve" smooth="yes"/>
      <point x="189" y="550" type="line"/>
      <point x="224" y="550" type="line"/>
      <point x="277" y="629" type="line"/>
      <point x="290" y="643"/>
      <point x="288" y="667"/>
      <point x="270" y="676" type="curve" smooth="yes"/>
      <point x="252" y="686"/>
      <point x="233" y="675"/>
    </contour>
  </outline>
</glyph>
<glyph name="omegatonos" format="1">
  <advance width="589"/>
  <unicode hex="03CE"/>
  <outline>
    <contour>
      <point x="453" y="497" type="curve"/>
      <point x="421" y="453" type="line"/>
      <point x="476" y="437"/>
      <point x="503" y="394"/>
      <point x="503" y="324" type="curve" smooth="yes"/>
      <point x="503" y="176" type="line" smooth="yes"/>
      <point x="503" y="84"/>
      <point x="459" y="40"/>
      <point x="402" y="40" type="curve" smooth="yes"/>
      <point x="346" y="40"/>
      <point x="324" y="77"/>
      <point x="324" y="156" type="curve" smooth="yes"/>
      <point x="324" y="296" type="line"/>
      <point x="267" y="296" type="line"/>
      <point x="267" y="156" type="line"/>
      <point x="263" y="77"/>
      <point x="243" y="40"/>
      <point x="186" y="40" type="curve" smooth="yes"/>
      <point x="130" y="40"/>
      <point x="84" y="84"/>
      <point x="84" y="176" type="curve" smooth="yes"/>
      <point x="84" y="324" type="line" smooth="yes"/>
      <point x="84" y="394"/>
      <point x="113" y="437"/>
      <point x="168" y="453" type="curve"/>
      <point x="137" y="497" type="line"/>
      <point x="65" y="471"/>
      <point x="28" y="409"/>
      <point x="28" y="315" type="curve" smooth="yes"/>
      <point x="28" y="186" type="line" smooth="yes"/>
      <point x="28" y="54"/>
      <point x="83" y="-13"/>
      <point x="190" y="-13" type="curve" smooth="yes"/>
      <point x="235" y="-13"/>
      <point x="270" y="4"/>
      <point x="295" y="40" type="curve"/>
      <point x="317" y="4"/>
      <point x="352" y="-13"/>
      <point x="400" y="-13" type="curve" smooth="yes"/>
      <point x="507" y="-13"/>
      <point x="559" y="54"/>
      <point x="559" y="186" type="curve" smooth="yes"/>
      <point x="559" y="315" type="line" smooth="yes"/>
      <point x="559" y="409"/>
      <point x="524" y="471"/>
    </contour>
    <contour>
      <point x="321" y="654" type="curve" smooth="yes"/>
      <point x="283" y="548" type="line"/>
      <point x="318" y="548" type="line"/>
      <point x="371" y="627" type="line"/>
      <point x="384" y="641"/>
      <point x="382" y="664"/>
      <point x="365" y="674" type="curve" smooth="yes"/>
      <point x="347" y="684"/>
      <point x="327" y="673"/>
    </contour>
  </outline>
</glyph>
<glyph name="wdieresis" format="1">
  <advance width="705"/>
  <unicode hex="1E85"/>
  <outline>
    <contour>
      <point x="380" y="498" type="line"/>
      <point x="323" y="498" type="line"/>
      <point x="211" y="57" type="line"/>
      <point x="77" y="498" type="line"/>
      <point x="19" y="498" type="line"/>
      <point x="171" y="0" type="line"/>
      <point x="248" y="0" type="line"/>
      <point x="350" y="404" type="line"/>
      <point x="450" y="0" type="line"/>
      <point x="527" y="0" type="line"/>
      <point x="682" y="498" type="line"/>
      <point x="623" y="498" type="line"/>
      <point x="490" y="57" type="line"/>
    </contour>
    <contour>
      <point x="274" y="740" type="curve" smooth="yes"/>
      <point x="257" y="740"/>
      <point x="241" y="725"/>
      <point x="241" y="706" type="curve" smooth="yes"/>
      <point x="241" y="687"/>
      <point x="257" y="673"/>
      <point x="274" y="673" type="curve" smooth="yes"/>
      <point x="293" y="673"/>
      <point x="308" y="687"/>
      <point x="308" y="706" type="curve" smooth="yes"/>
      <point x="308" y="725"/>
      <point x="293" y="740"/>
    </contour>
    <contour>
      <point x="433" y="740" type="curve" smooth="yes"/>
      <point x="414" y="740"/>
      <point x="400" y="725"/>
      <point x="400" y="706" type="curve" smooth="yes"/>
      <point x="400" y="687"/>
      <point x="414" y="673"/>
      <point x="433" y="673" type="curve" smooth="yes"/>
      <point x="451" y="673"/>
      <point x="466" y="687"/>
      <point x="466" y="706" type="curve" smooth="yes"/>
      <point x="466" y="725"/>
      <point x="451" y="740"/>
    </contour>
  </outline>
</glyph>
<glyph name="Ygrave" format="1">
  <advance width="513"/>
  <unicode hex="1EF2"/>
  <outline>
    <contour>
      <point x="472" y="155" type="curve" smooth="yes"/>
      <point x="472" y="698" type="line"/>
      <point x="416" y="698" type="line"/>
      <point x="416" y="422" type="line" smooth="yes"/>
      <point x="416" y="380"/>
      <point x="391" y="339"/>
      <point x="352" y="319" type="curve" smooth="yes"/>
      <point x="325" y="306"/>
      <point x="290" y="299"/>
      <point x="249" y="299" type="curve" smooth="yes"/>
      <point x="205" y="299"/>
      <point x="165" y="310"/>
      <point x="132" y="334" type="curve"/>
      <point x="100" y="360"/>
      <point x="86" y="395"/>
      <point x="86" y="451" type="curve" smooth="yes"/>
      <point x="86" y="698" type="line"/>
      <point x="30" y="698" type="line"/>
      <point x="30" y="462" type="line" smooth="yes"/>
      <point x="30" y="381"/>
      <point x="50" y="330"/>
      <point x="92" y="295" type="curve" smooth="yes"/>
      <point x="132" y="260"/>
      <point x="188" y="241"/>
      <point x="259" y="244" type="curve" smooth="yes"/>
      <point x="349" y="250"/>
      <point x="398" y="285"/>
      <point x="416" y="305" type="curve"/>
      <point x="416" y="152" type="line" smooth="yes"/>
      <point x="416" y="86"/>
      <point x="396" y="45"/>
      <point x="355" y="30" type="curve"/>
      <point x="368" y="-7" type="line"/>
      <point x="435" y="2"/>
      <point x="472" y="58"/>
    </contour>
    <contour>
      <point x="270" y="828" type="line"/>
      <point x="306" y="828" type="line"/>
      <point x="268" y="935" type="line" smooth="yes"/>
      <point x="262" y="954"/>
      <point x="241" y="965"/>
      <point x="224" y="955" type="curve" smooth="yes"/>
      <point x="206" y="945"/>
      <point x="205" y="922"/>
      <point x="217" y="908" type="curve"/>
    </contour>
  </outline>
</glyph>
<glyph name="ygrave" format="1">
  <advance width="463"/>
  <unicode hex="1EF3"/>
  <outline>
    <contour>
      <point x="434" y="468" type="curve"/>
      <point x="414" y="510" type="line"/>
      <point x="366" y="494"/>
      <point x="345" y="453"/>
      <point x="345" y="408" type="curve" smooth="yes"/>
      <point x="345" y="173" type="line" smooth="yes"/>
      <point x="345" y="102"/>
      <point x="289" y="44"/>
      <point x="218" y="44" type="curve" smooth="yes"/>
      <point x="156" y="44"/>
      <point x="88" y="69"/>
      <point x="88" y="161" type="curve" smooth="yes"/>
      <point x="88" y="499" type="line"/>
      <point x="32" y="499" type="line"/>
      <point x="32" y="157" type="line" smooth="yes"/>
      <point x="32" y="44"/>
      <point x="96" y="-9"/>
      <point x="206" y="-9" type="curve" smooth="yes"/>
      <point x="256" y="-9"/>
      <point x="312" y="10"/>
      <point x="345" y="50" type="curve"/>
      <point x="345" y="-61" type="line" smooth="yes"/>
      <point x="345" y="-89"/>
      <point x="339" y="-112"/>
      <point x="326" y="-130" type="curve" smooth="yes"/>
      <point x="315" y="-145"/>
      <point x="300" y="-157"/>
      <point x="280" y="-165" type="curve"/>
      <point x="296" y="-208" type="line"/>
      <point x="328" y="-197"/>
      <point x="352" y="-184"/>
      <point x="370" y="-165" type="curve" smooth="yes"/>
      <point x="392" y="-140"/>
      <point x="401" y="-107"/>
      <point x="401" y="-62" type="curve" smooth="yes"/>
      <point x="401" y="407" type="line" smooth="yes"/>
      <point x="401" y="448"/>
      <point x="415" y="460"/>
    </contour>
    <contour>
      <point x="246" y="608" type="line"/>
      <point x="282" y="608" type="line"/>
      <point x="244" y="715" type="line" smooth="yes"/>
      <point x="238" y="734"/>
      <point x="217" y="745"/>
      <point x="200" y="735" type="curve" smooth="yes"/>
      <point x="182" y="725"/>
      <point x="181" y="702"/>
      <point x="193" y="687" type="curve"/>
    </contour>
  </outline>
</glyph>
<glyph name="V.alt" format="1">
  <advance width="509"/>
  <unicode hex="9996"/>
  <outline>
    <contour>
      <point x="15" y="698" type="line"/>
      <point x="215" y="0" type="line"/>
      <point x="292" y="0" type="line"/>
      <point x="491" y="698" type="line"/>
      <point x="432" y="698" type="line"/>
      <point x="253" y="69" type="line"/>
      <point x="75" y="698" type="line"/>
    </contour>
  </outline>
</glyph>
<glyph name="hungarumlautcomb" format="1">
  <advance width="266"/>
  <outline>
    <contour>
      <point x="60" y="580" type="line"/>
      <point x="95" y="580" type="line"/>
      <point x="149" y="658" type="line"/>
      <point x="161" y="673"/>
      <point x="160" y="696"/>
      <point x="142" y="706" type="curve" smooth="yes"/>
      <point x="125" y="716"/>
      <point x="104" y="705"/>
      <point x="98" y="686" type="curve" smooth="yes"/>
    </contour>
    <contour>
      <point x="172" y="580" type="line"/>
      <point x="207" y="580" type="line"/>
      <point x="260" y="658" type="line"/>
      <point x="273" y="673"/>
      <point x="271" y="696"/>
      <point x="253" y="706" type="curve" smooth="yes"/>
      <point x="236" y="716"/>
      <point x="216" y="705"/>
      <point x="209" y="686" type="curve" smooth="yes"/>
    </contour>
  </outline>
</glyph>
<glyph name="ogonekcomb" format="1">
  <advance width="266"/>
  <outline>
    <contour>
      <point x="77" y="-122" type="curve" smooth="yes"/>
      <point x="148" y="2" type="line"/>
      <point x="148" y="11" type="line"/>
      <point x="104" y="8" type="line"/>
      <point x="104" y="3" type="line"/>
      <point x="40" y="-108" type="line" smooth="yes"/>
      <point x="0" y="-180"/>
      <point x="48" y="-251"/>
      <point x="137" y="-226" type="curve" smooth="yes"/>
      <point x="156" y="-220"/>
      <point x="240" y="-190"/>
      <point x="241" y="-189" type="curve"/>
      <point x="223" y="-150" type="line"/>
      <point x="223" y="-150"/>
      <point x="181" y="-164"/>
      <point x="126" y="-184" type="curve" smooth="yes"/>
      <point x="77" y="-200"/>
      <point x="51" y="-168"/>
    </contour>
  </outline>
</glyph>
